<svg width="261" height="33" viewBox="0 0 261 33" fill="none" xmlns="http://www.w3.org/2000/svg">
<path d="M248.713 27.489C250.652 27.489 252.056 27.1046 252.926 26.3356C253.828 25.5667 254.28 24.6305 254.28 23.5272C254.28 22.5243 253.928 21.7052 253.226 21.0699C252.524 20.4347 251.471 19.8998 250.067 19.4651L246.857 18.4622C245.186 17.9272 243.715 17.292 242.444 16.5565C241.174 15.821 240.188 14.9015 239.485 13.7983C238.783 12.695 238.432 11.3075 238.432 9.63586C238.432 6.9278 239.452 4.78809 241.491 3.21674C243.531 1.61196 246.322 0.80957 249.866 0.80957C251.739 0.80957 253.41 0.993451 254.881 1.36121C256.352 1.72898 257.506 2.2639 258.342 2.96599C259.177 3.63465 259.595 4.43704 259.595 5.37317C259.595 6.00839 259.428 6.57675 259.094 7.07824C258.793 7.57974 258.409 7.99765 257.94 8.33198C257.138 7.76362 256.068 7.26213 254.731 6.8275C253.427 6.39287 251.989 6.17556 250.418 6.17556C248.713 6.17556 247.409 6.49317 246.506 7.1284C245.604 7.76362 245.152 8.59944 245.152 9.63586C245.152 10.4383 245.453 11.1069 246.055 11.6418C246.69 12.1433 247.677 12.5947 249.014 12.9959L251.822 13.8986C254.764 14.7678 257.021 15.9547 258.592 17.4592C260.197 18.9636 261 21.0031 261 23.5774C261 26.3189 259.946 28.5589 257.84 30.2974C255.767 32.0025 252.775 32.855 248.863 32.855C246.824 32.855 245.002 32.621 243.397 32.1529C241.826 31.7183 240.589 31.1165 239.686 30.3476C238.783 29.5452 238.332 28.6759 238.332 27.7398C238.332 26.9374 238.549 26.2687 238.984 25.7338C239.452 25.1989 239.987 24.7977 240.589 24.5302C241.425 25.2658 242.528 25.9511 243.899 26.5864C245.303 27.1882 246.908 27.489 248.713 27.489Z" fill="white"/>
<path d="M235.014 16.8072C235.014 20.2843 234.345 23.2263 233.008 25.6335C231.67 28.0073 229.848 29.8126 227.541 31.0497C225.268 32.2532 222.677 32.855 219.768 32.855C216.86 32.855 214.252 32.2532 211.945 31.0497C209.638 29.8126 207.816 28.0073 206.479 25.6335C205.175 23.2263 204.523 20.2843 204.523 16.8072C204.523 13.3302 205.191 10.4048 206.529 8.03108C207.9 5.65734 209.722 3.86868 211.995 2.6651C214.302 1.42808 216.893 0.80957 219.768 0.80957C222.61 0.80957 225.184 1.42808 227.491 2.6651C229.798 3.86868 231.62 5.65734 232.958 8.03108C234.328 10.4048 235.014 13.3302 235.014 16.8072ZM228.294 16.8072C228.294 13.3636 227.525 10.7224 225.987 8.88362C224.449 7.04481 222.376 6.12541 219.768 6.12541C217.194 6.12541 215.121 7.04481 213.55 8.88362C212.012 10.689 211.243 13.3302 211.243 16.8072C211.243 20.2843 212.012 22.9422 213.55 24.781C215.121 26.5864 217.194 27.489 219.768 27.489C222.376 27.489 224.449 26.5864 225.987 24.781C227.525 22.9422 228.294 20.2843 228.294 16.8072Z" fill="white"/>
<path d="M194.687 11.81H201.207V32.0202C200.939 32.0871 200.521 32.1707 199.953 32.271C199.384 32.3713 198.799 32.4214 198.198 32.4214C196.927 32.4214 196.024 32.1874 195.49 31.7193C194.955 31.2513 194.687 30.4656 194.687 29.3623V11.81ZM201.207 19.4327H194.687V1.62971C194.988 1.56284 195.423 1.47926 195.991 1.37896C196.559 1.27866 197.128 1.22852 197.696 1.22852C198.933 1.22852 199.819 1.44583 200.354 1.88046C200.922 2.31509 201.207 3.11748 201.207 4.28763V19.4327Z" fill="white"/>
<path d="M168.252 21.8222V4.06928C168.252 3.43405 168.419 2.94928 168.753 2.61495C169.088 2.28062 169.556 2.01316 170.157 1.81256C171.194 1.4448 172.448 1.19405 173.919 1.06032C175.423 0.893151 176.811 0.80957 178.081 0.80957C182.494 0.80957 185.804 1.76241 188.011 3.66809C190.251 5.54033 191.371 8.08123 191.371 11.2908C191.371 13.3971 190.869 15.2526 189.866 16.8574C188.897 18.4287 187.476 19.649 185.603 20.5183C183.731 21.3875 181.441 21.8222 178.733 21.8222H168.252ZM171.762 32.3034C170.492 32.3034 169.589 32.0694 169.054 31.6013C168.519 31.1332 168.252 30.3476 168.252 29.2443V18.9135H174.771V31.9022C174.47 31.9691 174.036 32.0526 173.467 32.1529C172.932 32.2532 172.364 32.3034 171.762 32.3034ZM174.721 16.6066H178.282C180.288 16.6066 181.859 16.172 182.996 15.3027C184.166 14.4001 184.751 13.0627 184.751 11.2908C184.751 9.55228 184.199 8.2484 183.096 7.37914C182.026 6.50988 180.455 6.07526 178.382 6.07526C177.68 6.07526 177.028 6.10869 176.426 6.17556C175.824 6.20899 175.256 6.27585 174.721 6.37615V16.6066Z" fill="white"/>
<path d="M164.933 16.8072C164.933 20.2843 164.265 23.2263 162.927 25.6335C161.59 28.0073 159.768 29.8126 157.461 31.0497C155.188 32.2532 152.597 32.855 149.688 32.855C146.779 32.855 144.172 32.2532 141.865 31.0497C139.558 29.8126 137.736 28.0073 136.398 25.6335C135.095 23.2263 134.443 20.2843 134.443 16.8072C134.443 13.3302 135.111 10.4048 136.449 8.03108C137.819 5.65734 139.641 3.86868 141.915 2.6651C144.222 1.42808 146.813 0.80957 149.688 0.80957C152.53 0.80957 155.104 1.42808 157.411 2.6651C159.718 3.86868 161.54 5.65734 162.877 8.03108C164.248 10.4048 164.933 13.3302 164.933 16.8072ZM158.213 16.8072C158.213 13.3636 157.444 10.7224 155.907 8.88362C154.369 7.04481 152.296 6.12541 149.688 6.12541C147.114 6.12541 145.041 7.04481 143.47 8.88362C141.932 10.689 141.163 13.3302 141.163 16.8072C141.163 20.2843 141.932 22.9422 143.47 24.781C145.041 26.5864 147.114 27.489 149.688 27.489C152.296 27.489 154.369 26.5864 155.907 24.781C157.444 22.9422 158.213 20.2843 158.213 16.8072Z" fill="white"/>
<path d="M110.966 12.0106H117.485V31.7194L114.426 32.1707C113.39 32.1707 112.554 31.8531 111.919 31.2179C111.284 30.5826 110.966 29.7301 110.966 28.6602V12.0106ZM114.426 32.1707V26.8047H130.374C130.574 27.0387 130.742 27.3898 130.875 27.8579C131.043 28.3259 131.126 28.8274 131.126 29.3623C131.126 30.265 130.909 30.9671 130.474 31.4686C130.073 31.9367 129.505 32.1707 128.769 32.1707H114.426ZM117.485 19.4829H110.966V1.62971C111.234 1.56284 111.651 1.47926 112.22 1.37896C112.822 1.27866 113.407 1.22852 113.975 1.22852C115.179 1.22852 116.065 1.44583 116.633 1.88046C117.201 2.31509 117.485 3.11748 117.485 4.28763V19.4829Z" fill="white"/>
<path d="M86.6864 11.5849H93.0554V31.5945C92.7879 31.6614 92.3867 31.7617 91.8518 31.8954C91.3169 31.9957 90.7485 32.0459 90.1467 32.0459C89.0769 32.0459 88.2243 31.7283 87.5891 31.093C86.9873 30.4578 86.6864 29.6053 86.6864 28.5354V11.5849ZM93.0554 21.7652H86.6864V5.01534C86.6864 3.94549 86.9873 3.09295 87.5891 2.45772C88.2243 1.8225 89.0769 1.50488 90.1467 1.50488C90.7485 1.50488 91.3169 1.55503 91.8518 1.65533C92.3867 1.75563 92.7879 1.85593 93.0554 1.95623V21.7652ZM90.1467 19.007V13.7915H105.292C105.459 14.0589 105.609 14.41 105.743 14.8446C105.877 15.2793 105.944 15.764 105.944 16.299C105.944 17.2016 105.743 17.887 105.342 18.3551C104.941 18.7897 104.372 19.007 103.637 19.007H90.1467ZM90.1467 32.0459V26.7802H106.947C107.147 27.0476 107.315 27.4154 107.448 27.8835C107.582 28.3181 107.649 28.8029 107.649 29.3378C107.649 30.2405 107.448 30.9259 107.047 31.3939C106.646 31.8286 106.078 32.0459 105.342 32.0459H90.1467ZM90.1467 6.72042V1.50488H106.746C106.913 1.77235 107.064 2.12339 107.198 2.55802C107.365 2.99265 107.448 3.47743 107.448 4.01235C107.448 4.91504 107.231 5.60042 106.796 6.06848C106.395 6.50311 105.843 6.72042 105.141 6.72042H90.1467Z" fill="white"/>
<path d="M73.7909 31.3054C73.4565 31.5729 72.9216 31.8236 72.1861 32.0576C71.4505 32.2917 70.6482 32.4087 69.7789 32.4087C68.7759 32.4087 67.8732 32.2582 67.0708 31.9573C66.3019 31.623 65.7837 31.1884 65.5162 30.6535C65.0147 29.6505 64.4296 28.3299 63.761 26.6917C63.0923 25.0534 62.3735 23.2146 61.6045 21.1752C60.8356 19.1358 60.0666 17.0463 59.2977 14.9065C58.5287 12.7334 57.8099 10.6104 57.1413 8.53757C56.506 6.4313 55.9544 4.52562 55.4863 2.82054C55.8207 2.45278 56.3054 2.11845 56.9407 1.81755C57.6093 1.51666 58.3281 1.36621 59.0971 1.36621C60.0332 1.36621 60.7687 1.58353 61.3037 2.01815C61.872 2.41935 62.3066 3.12144 62.6075 4.12443C63.7777 7.90235 64.9311 11.5633 66.0678 15.1071C67.2046 18.6176 68.4416 22.2284 69.7789 25.9394H70.0296C70.7986 23.6325 71.5843 21.1585 72.3867 18.5173C73.2225 15.8427 74.0416 13.1179 74.844 10.343C75.6464 7.53459 76.3819 4.77637 77.0506 2.0683C77.4852 1.83427 77.9532 1.66711 78.4547 1.56681C78.9562 1.43308 79.5079 1.36621 80.1097 1.36621C81.0458 1.36621 81.8147 1.58353 82.4165 2.01815C83.0518 2.41935 83.3694 3.10472 83.3694 4.07428C83.3694 4.67607 83.1855 5.67906 82.8177 7.08324C82.4834 8.45399 82.0153 10.0588 81.4136 11.8976C80.8452 13.703 80.1933 15.6086 79.4577 17.6146C78.7556 19.5872 78.0368 21.4928 77.3013 23.3316C76.5992 25.1705 75.9306 26.792 75.2953 28.1961C74.6935 29.6003 74.192 30.6367 73.7909 31.3054Z" fill="white"/>
<path d="M31.2064 11.5849H37.5754V31.5945C37.3079 31.6614 36.9067 31.7617 36.3718 31.8954C35.8369 31.9957 35.2685 32.0459 34.6667 32.0459C33.5969 32.0459 32.7443 31.7283 32.1091 31.093C31.5073 30.4578 31.2064 29.6053 31.2064 28.5354V11.5849ZM37.5754 21.7652H31.2064V5.01534C31.2064 3.94549 31.5073 3.09295 32.1091 2.45772C32.7443 1.8225 33.5969 1.50488 34.6667 1.50488C35.2685 1.50488 35.8369 1.55503 36.3718 1.65533C36.9067 1.75563 37.3079 1.85593 37.5754 1.95623V21.7652ZM34.6667 19.007V13.7915H49.8118C49.979 14.0589 50.1295 14.41 50.2632 14.8446C50.3969 15.2793 50.4638 15.764 50.4638 16.299C50.4638 17.2016 50.2632 17.887 49.862 18.3551C49.4608 18.7897 48.8924 19.007 48.1569 19.007H34.6667ZM34.6667 32.0459V26.7802H51.4668C51.6674 27.0476 51.8345 27.4154 51.9683 27.8835C52.102 28.3181 52.1689 28.8029 52.1689 29.3378C52.1689 30.2405 51.9683 30.9259 51.5671 31.3939C51.1659 31.8286 50.5975 32.0459 49.862 32.0459H34.6667ZM34.6667 6.72042V1.50488H51.2662C51.4333 1.77235 51.5838 2.12339 51.7175 2.55802C51.8847 2.99265 51.9683 3.47743 51.9683 4.01235C51.9683 4.91504 51.751 5.60042 51.3163 6.06848C50.9151 6.50311 50.3635 6.72042 49.6614 6.72042H34.6667Z" fill="white"/>
<path d="M21.2186 16.6066C21.2186 14.1995 20.784 12.2269 19.9147 10.689C19.0454 9.15109 17.8586 8.01437 16.3541 7.27884C14.883 6.50988 13.1947 6.12541 11.289 6.12541C10.52 6.12541 9.81796 6.15884 9.18273 6.22571C8.5475 6.25914 7.94571 6.326 7.37735 6.4263V26.9374C7.94571 27.0711 8.59765 27.1714 9.33318 27.2383C10.0687 27.3052 10.7708 27.3386 11.4395 27.3386C14.5153 27.3386 16.9057 26.4359 18.6108 24.6305C20.3493 22.8252 21.2186 20.1505 21.2186 16.6066ZM27.8885 16.5565C27.8885 20.1672 27.2031 23.1595 25.8323 25.5332C24.495 27.907 22.5893 29.6956 20.1153 30.8992C17.6413 32.0694 14.7493 32.6544 11.4395 32.6544C10.3696 32.6544 9.06572 32.5876 7.5278 32.4538C5.98989 32.3201 4.5857 32.0359 3.31525 31.6013C1.71047 31.0329 0.908081 30.03 0.908081 28.5923V4.01913C0.908081 3.41734 1.07525 2.94928 1.40957 2.61495C1.7439 2.28062 2.21196 2.01316 2.81376 1.81256C4.05078 1.37793 5.38809 1.11047 6.82571 1.01017C8.29676 0.876436 9.68422 0.80957 10.9881 0.80957C14.3648 0.80957 17.3069 1.39465 19.8144 2.5648C22.3553 3.70152 24.3278 5.44003 25.732 7.78034C27.1696 10.0872 27.8885 13.0126 27.8885 16.5565Z" fill="white"/>
</svg>
