<svg width="33" height="53" viewBox="0 0 33 53" fill="none" xmlns="http://www.w3.org/2000/svg">
<g filter="url(#filter0_ii_1072_4249)">
<path d="M15.44 30.9788C15.035 34.6013 11.7727 37.2092 8.15333 36.8036C4.534 36.398 1.92825 33.1325 2.33322 29.51C2.7382 25.8874 6.00054 23.2796 9.61987 23.6852C13.2392 24.0907 15.845 27.3562 15.44 30.9788Z" fill="url(#paint0_linear_1072_4249)"/>
<path d="M0.645667 18.2152C1.35248 17.6925 2.3489 17.8422 2.87125 18.5497L8.63314 26.3539C9.15548 27.0614 9.00594 28.0587 8.29913 28.5814C7.59232 29.1042 6.59589 28.9544 6.07355 28.247L0.311652 20.4428C-0.210689 19.7353 -0.0611456 18.738 0.645667 18.2152Z" fill="url(#paint1_linear_1072_4249)"/>
<path d="M9.90923 21.6474C9.18946 21.6474 8.60598 21.0632 8.60598 20.3425V16.9597C8.60598 16.239 9.18946 15.6549 9.90923 15.6549C10.629 15.6549 11.2125 16.239 11.2125 16.9597V20.3425C11.2125 21.0632 10.629 21.6474 9.90923 21.6474Z" fill="url(#paint2_linear_1072_4249)"/>
<path d="M18.0222 18.6822C18.5336 19.1637 18.5584 19.9691 18.0775 20.4812L15.7506 22.959C15.2697 23.471 14.4653 23.4958 13.9538 23.0143C13.4424 22.5329 13.4176 21.7275 13.8985 21.2154L16.2254 18.7376C16.7063 18.2256 17.5107 18.2008 18.0222 18.6822Z" fill="url(#paint3_linear_1072_4249)"/>
<path fill-rule="evenodd" clip-rule="evenodd" d="M1.72982 1.32129V8.6491H6.53007C16.2508 8.6491 24.131 16.5293 24.131 26.25C24.131 35.9707 16.2508 43.8509 6.53007 43.8509H1.72982V51.1787C1.72982 51.9085 2.32138 52.5 3.05111 52.5H6.53007C7.20068 52.5 7.86541 52.4749 8.52338 52.4255C21.4317 51.4563 31.7363 41.1516 32.7055 28.2433C32.7549 27.5853 32.7801 26.9206 32.7801 26.25C32.7801 25.5794 32.7549 24.9147 32.7055 24.2567C31.7363 11.3484 21.4317 1.04374 8.52338 0.0745492C7.86541 0.0251469 7.20068 0 6.53007 0H3.05111C2.32138 0 1.72982 0.591562 1.72982 1.32129Z" fill="url(#paint4_linear_1072_4249)"/>
<path d="M1.80988e-09 1.72982C1.80988e-09 0.774466 0.774467 0 1.72982 0H3.37315C4.3285 0 5.10297 0.774466 5.10297 1.72982V6.91928C5.10297 7.87463 4.3285 8.6491 3.37315 8.6491H1.72982C0.774467 8.6491 1.80988e-09 7.87463 1.80988e-09 6.91928V1.72982Z" fill="url(#paint5_linear_1072_4249)"/>
<path d="M1.80988e-09 45.5807C1.80988e-09 44.6254 0.774467 43.8509 1.72982 43.8509H3.37315C4.3285 43.8509 5.10297 44.6254 5.10297 45.5807V50.7702C5.10297 51.7255 4.3285 52.5 3.37315 52.5H1.72982C0.774467 52.5 1.80988e-09 51.7255 1.80988e-09 50.7702V45.5807Z" fill="url(#paint6_linear_1072_4249)"/>
</g>
<g clip-path="url(#clip0_1072_4249)">
<g filter="url(#filter1_ii_1072_4249)">
<path d="M15.44 30.9788C15.035 34.6013 11.7727 37.2092 8.15333 36.8036C4.534 36.398 1.92825 33.1325 2.33322 29.51C2.7382 25.8874 6.00054 23.2796 9.61987 23.6852C13.2392 24.0907 15.845 27.3562 15.44 30.9788Z" fill="url(#paint7_linear_1072_4249)"/>
<path d="M0.645667 18.2152C1.35248 17.6925 2.3489 17.8422 2.87125 18.5497L8.63314 26.3539C9.15548 27.0614 9.00594 28.0587 8.29913 28.5814C7.59232 29.1042 6.59589 28.9544 6.07355 28.247L0.311652 20.4428C-0.210689 19.7353 -0.0611456 18.738 0.645667 18.2152Z" fill="url(#paint8_linear_1072_4249)"/>
<path d="M9.90923 21.6474C9.18946 21.6474 8.60598 21.0632 8.60598 20.3425V16.9597C8.60598 16.239 9.18946 15.6549 9.90923 15.6549C10.629 15.6549 11.2125 16.239 11.2125 16.9597V20.3425C11.2125 21.0632 10.629 21.6474 9.90923 21.6474Z" fill="url(#paint9_linear_1072_4249)"/>
<path d="M18.0222 18.6822C18.5336 19.1637 18.5584 19.9691 18.0775 20.4812L15.7506 22.959C15.2697 23.471 14.4653 23.4958 13.9538 23.0143C13.4424 22.5329 13.4176 21.7275 13.8985 21.2154L16.2254 18.7376C16.7063 18.2256 17.5107 18.2008 18.0222 18.6822Z" fill="url(#paint10_linear_1072_4249)"/>
<path fill-rule="evenodd" clip-rule="evenodd" d="M1.72982 1.32129V8.6491H6.53007C16.2508 8.6491 24.131 16.5293 24.131 26.25C24.131 35.9707 16.2508 43.8509 6.53007 43.8509H1.72982V51.1787C1.72982 51.9085 2.32138 52.5 3.05111 52.5H6.53007C7.20068 52.5 7.86541 52.4749 8.52338 52.4255C21.4317 51.4563 31.7363 41.1516 32.7055 28.2433C32.7549 27.5853 32.7801 26.9206 32.7801 26.25C32.7801 25.5794 32.7549 24.9147 32.7055 24.2567C31.7363 11.3484 21.4317 1.04374 8.52338 0.0745492C7.86541 0.0251469 7.20068 0 6.53007 0H3.05111C2.32138 0 1.72982 0.591562 1.72982 1.32129Z" fill="url(#paint11_linear_1072_4249)"/>
<path d="M1.80988e-09 1.72982C1.80988e-09 0.774466 0.774467 0 1.72982 0H3.37315C4.3285 0 5.10297 0.774466 5.10297 1.72982V6.91928C5.10297 7.87463 4.3285 8.6491 3.37315 8.6491H1.72982C0.774467 8.6491 1.80988e-09 7.87463 1.80988e-09 6.91928V1.72982Z" fill="url(#paint12_linear_1072_4249)"/>
<path d="M1.80988e-09 45.5807C1.80988e-09 44.6254 0.774467 43.8509 1.72982 43.8509H3.37315C4.3285 43.8509 5.10297 44.6254 5.10297 45.5807V50.7702C5.10297 51.7255 4.3285 52.5 3.37315 52.5H1.72982C0.774467 52.5 1.80988e-09 51.7255 1.80988e-09 50.7702V45.5807Z" fill="url(#paint13_linear_1072_4249)"/>
</g>
</g>
<defs>
<filter id="filter0_ii_1072_4249" x="-0.307227" y="-0.419829" width="33.5071" height="53.3397" filterUnits="userSpaceOnUse" color-interpolation-filters="sRGB">
<feFlood flood-opacity="0" result="BackgroundImageFix"/>
<feBlend mode="normal" in="SourceGraphic" in2="BackgroundImageFix" result="shape"/>
<feColorMatrix in="SourceAlpha" type="matrix" values="0 0 0 0 0 0 0 0 0 0 0 0 0 0 0 0 0 0 127 0" result="hardAlpha"/>
<feOffset dx="-0.307227" dy="0.774926"/>
<feGaussianBlur stdDeviation="0.209915"/>
<feComposite in2="hardAlpha" operator="arithmetic" k2="-1" k3="1"/>
<feColorMatrix type="matrix" values="0 0 0 0 1 0 0 0 0 1 0 0 0 0 1 0 0 0 0.5 0"/>
<feBlend mode="normal" in2="shape" result="effect1_innerShadow_1072_4249"/>
<feColorMatrix in="SourceAlpha" type="matrix" values="0 0 0 0 0 0 0 0 0 0 0 0 0 0 0 0 0 0 127 0" result="hardAlpha"/>
<feOffset dx="0.593882" dy="-0.799703"/>
<feGaussianBlur stdDeviation="0.209915"/>
<feComposite in2="hardAlpha" operator="arithmetic" k2="-1" k3="1"/>
<feColorMatrix type="matrix" values="0 0 0 0 0.808333 0 0 0 0 0.266076 0 0 0 0 0.349807 0 0 0 1 0"/>
<feBlend mode="normal" in2="effect1_innerShadow_1072_4249" result="effect2_innerShadow_1072_4249"/>
</filter>
<filter id="filter1_ii_1072_4249" x="-0.307227" y="-0.419829" width="33.5071" height="53.3397" filterUnits="userSpaceOnUse" color-interpolation-filters="sRGB">
<feFlood flood-opacity="0" result="BackgroundImageFix"/>
<feBlend mode="normal" in="SourceGraphic" in2="BackgroundImageFix" result="shape"/>
<feColorMatrix in="SourceAlpha" type="matrix" values="0 0 0 0 0 0 0 0 0 0 0 0 0 0 0 0 0 0 127 0" result="hardAlpha"/>
<feOffset dx="-0.307227" dy="0.774926"/>
<feGaussianBlur stdDeviation="0.209915"/>
<feComposite in2="hardAlpha" operator="arithmetic" k2="-1" k3="1"/>
<feColorMatrix type="matrix" values="0 0 0 0 1 0 0 0 0 1 0 0 0 0 1 0 0 0 0.5 0"/>
<feBlend mode="normal" in2="shape" result="effect1_innerShadow_1072_4249"/>
<feColorMatrix in="SourceAlpha" type="matrix" values="0 0 0 0 0 0 0 0 0 0 0 0 0 0 0 0 0 0 127 0" result="hardAlpha"/>
<feOffset dx="0.594567" dy="-0.799703"/>
<feGaussianBlur stdDeviation="0.209915"/>
<feComposite in2="hardAlpha" operator="arithmetic" k2="-1" k3="1"/>
<feColorMatrix type="matrix" values="0 0 0 0 0.854167 0 0 0 0 0.433136 0 0 0 0 0.195747 0 0 0 1 0"/>
<feBlend mode="normal" in2="effect1_innerShadow_1072_4249" result="effect2_innerShadow_1072_4249"/>
</filter>
<linearGradient id="paint0_linear_1072_4249" x1="16.39" y1="0" x2="16.39" y2="52.5" gradientUnits="userSpaceOnUse">
<stop stop-color="#F8A75A"/>
<stop offset="1" stop-color="#F56A85"/>
</linearGradient>
<linearGradient id="paint1_linear_1072_4249" x1="16.39" y1="0" x2="16.39" y2="52.5" gradientUnits="userSpaceOnUse">
<stop stop-color="#F8A75A"/>
<stop offset="1" stop-color="#F56A85"/>
</linearGradient>
<linearGradient id="paint2_linear_1072_4249" x1="16.39" y1="0" x2="16.39" y2="52.5" gradientUnits="userSpaceOnUse">
<stop stop-color="#F8A75A"/>
<stop offset="1" stop-color="#F56A85"/>
</linearGradient>
<linearGradient id="paint3_linear_1072_4249" x1="16.39" y1="0" x2="16.39" y2="52.5" gradientUnits="userSpaceOnUse">
<stop stop-color="#F8A75A"/>
<stop offset="1" stop-color="#F56A85"/>
</linearGradient>
<linearGradient id="paint4_linear_1072_4249" x1="16.39" y1="0" x2="16.39" y2="52.5" gradientUnits="userSpaceOnUse">
<stop stop-color="#F8A75A"/>
<stop offset="1" stop-color="#F56A85"/>
</linearGradient>
<linearGradient id="paint5_linear_1072_4249" x1="16.39" y1="0" x2="16.39" y2="52.5" gradientUnits="userSpaceOnUse">
<stop stop-color="#F8A75A"/>
<stop offset="1" stop-color="#F56A85"/>
</linearGradient>
<linearGradient id="paint6_linear_1072_4249" x1="16.39" y1="0" x2="16.39" y2="52.5" gradientUnits="userSpaceOnUse">
<stop stop-color="#F8A75A"/>
<stop offset="1" stop-color="#F56A85"/>
</linearGradient>
<linearGradient id="paint7_linear_1072_4249" x1="16.39" y1="0" x2="16.39" y2="52.5" gradientUnits="userSpaceOnUse">
<stop stop-color="#F8A75A"/>
<stop offset="1" stop-color="#F56A85"/>
</linearGradient>
<linearGradient id="paint8_linear_1072_4249" x1="16.39" y1="0" x2="16.39" y2="52.5" gradientUnits="userSpaceOnUse">
<stop stop-color="#F8A75A"/>
<stop offset="1" stop-color="#F56A85"/>
</linearGradient>
<linearGradient id="paint9_linear_1072_4249" x1="16.39" y1="0" x2="16.39" y2="52.5" gradientUnits="userSpaceOnUse">
<stop stop-color="#F8A75A"/>
<stop offset="1" stop-color="#F56A85"/>
</linearGradient>
<linearGradient id="paint10_linear_1072_4249" x1="16.39" y1="0" x2="16.39" y2="52.5" gradientUnits="userSpaceOnUse">
<stop stop-color="#F8A75A"/>
<stop offset="1" stop-color="#F56A85"/>
</linearGradient>
<linearGradient id="paint11_linear_1072_4249" x1="16.39" y1="0" x2="16.39" y2="52.5" gradientUnits="userSpaceOnUse">
<stop stop-color="#F8A75A"/>
<stop offset="1" stop-color="#F56A85"/>
</linearGradient>
<linearGradient id="paint12_linear_1072_4249" x1="16.39" y1="0" x2="16.39" y2="52.5" gradientUnits="userSpaceOnUse">
<stop stop-color="#F8A75A"/>
<stop offset="1" stop-color="#F56A85"/>
</linearGradient>
<linearGradient id="paint13_linear_1072_4249" x1="16.39" y1="0" x2="16.39" y2="52.5" gradientUnits="userSpaceOnUse">
<stop stop-color="#F8A75A"/>
<stop offset="1" stop-color="#F56A85"/>
</linearGradient>
<clipPath id="clip0_1072_4249">
<rect width="32.7801" height="37.1005" fill="white"/>
</clipPath>
</defs>
</svg>
