<svg width="20" height="20" viewBox="0 0 20 20" fill="none" xmlns="http://www.w3.org/2000/svg">
<g clip-path="url(#clip0_1087_2028)">
<path fill-rule="evenodd" clip-rule="evenodd" d="M18.4423 17.8235L13.5404 12.9217L14.1672 12.2949C14.5173 11.9448 14.9828 11.752 15.4779 11.752C15.9731 11.752 16.4387 11.9448 16.7887 12.2949L19.0691 14.5752C19.4191 14.9253 19.612 15.3908 19.612 15.886C19.612 16.3813 19.4191 16.8467 19.0691 17.1968L18.4423 17.8235Z" fill="white"/>
<path fill-rule="evenodd" clip-rule="evenodd" d="M2.33691 1.71854L2.96367 1.09177C3.31375 0.74173 3.7793 0.548828 4.27446 0.548828C4.76963 0.548828 5.23518 0.74173 5.58527 1.09177L7.86566 3.37205C8.58834 4.09469 8.58834 5.27078 7.86566 5.99365L7.23891 6.62042L2.33691 1.71854Z" fill="white"/>
<path fill-rule="evenodd" clip-rule="evenodd" d="M17.5797 18.6454C15.9258 20.016 13.799 20.3152 11.3896 19.5047C9.32543 18.8103 7.04207 17.2814 4.9602 15.1996C2.87833 13.1177 1.34931 10.8344 0.65507 8.77008C-0.15539 6.36076 0.143776 4.23403 1.51438 2.58008L6.43994 7.50562C5.38152 9.15556 6.90341 11.1087 7.97722 12.1825C9.05117 13.2563 11.0043 14.7783 12.6541 13.7197L17.5797 18.6454Z" fill="white"/>
</g>
<defs>
<clipPath id="clip0_1087_2028">
<rect width="19.4024" height="19.4022" fill="white" transform="translate(0.209229 0.548828)"/>
</clipPath>
</defs>
</svg>
